<svg xmlns="http://www.w3.org/2000/svg" width="160" height="200" viewBox="0 0 160 200"><rect width="100%" height="100%" fill="#DDDDDD"/><path fill="#999999" d="M43.25 91.825h2.72v16.63h-1.58q-.37 0-.62-.12t-.48-.41l-8.68-11.09q.07.76.07 1.41v10.21h-2.73v-16.63h1.63q.19 0 .33.02.15.02.26.07t.21.15q.1.09.23.26l8.72 11.13q-.04-.41-.06-.8t-.02-.72zm11.2 4.65q1.31 0 2.38.42 1.08.43 1.84 1.21.77.78 1.18 1.91.42 1.13.42 2.52 0 1.4-.42 2.53-.41 1.12-1.18 1.92-.76.79-1.84 1.22-1.07.42-2.38.42-1.32 0-2.41-.42-1.08-.43-1.84-1.22-.77-.8-1.19-1.92-.42-1.13-.42-2.53 0-1.39.42-2.52t1.19-1.91q.76-.78 1.84-1.21 1.09-.42 2.41-.42m0 9.97q1.47 0 2.18-.99.7-.99.7-2.9t-.7-2.91q-.71-1-2.18-1-1.5 0-2.22 1.01-.71 1-.71 2.9t.71 2.89q.72 1 2.22 1m17.12-6.26h2.31q.85 0 1.49-.21.63-.21 1.05-.61t.63-.97q.2-.57.2-1.27 0-.66-.2-1.21-.21-.54-.63-.92-.41-.37-1.04-.58-.63-.2-1.5-.2h-2.31zm-3.09-8.36h5.4q1.67 0 2.89.39t2.01 1.09q.8.71 1.18 1.68.39.98.39 2.14 0 1.21-.41 2.22-.4 1-1.2 1.73-.81.72-2.02 1.12-1.22.41-2.84.41h-2.31v5.85h-3.09zm16.63-.46v6.56q.69-.65 1.51-1.05.83-.4 1.95-.4.96 0 1.71.32.75.33 1.25.92.5.6.76 1.42t.26 1.81v7.51h-2.84v-7.51q0-1.08-.5-1.67-.49-.6-1.5-.6-.74 0-1.38.34-.65.33-1.22.91v8.53h-2.84v-17.09zm15.35 5.11q1.31 0 2.39.42 1.07.43 1.84 1.21.76.78 1.17 1.91.42 1.13.42 2.52 0 1.4-.42 2.53-.41 1.12-1.17 1.92-.77.79-1.84 1.22-1.08.42-2.39.42-1.32 0-2.4-.42-1.09-.43-1.85-1.22-.77-.8-1.18-1.92-.42-1.13-.42-2.53 0-1.39.42-2.52.41-1.13 1.18-1.91.76-.78 1.85-1.21 1.08-.42 2.4-.42m0 9.97q1.47 0 2.18-.99t.71-2.9-.71-2.91-2.18-1q-1.5 0-2.21 1.01-.72 1-.72 2.9t.72 2.89q.71 1 2.21 1m11.92 2.19q-1.54 0-2.36-.86-.82-.87-.82-2.4v-6.59h-1.21q-.23 0-.39-.15t-.16-.45v-1.13l1.9-.31.6-3.22q.05-.23.21-.35.16-.13.42-.13h1.47v3.71h3.15v2.03h-3.15v6.39q0 .55.27.86.27.32.74.32.27 0 .44-.07.18-.06.31-.13.14-.07.24-.13.1-.07.21-.07.12 0 .2.07.09.06.18.19l.85 1.38q-.62.52-1.43.78-.8.26-1.67.26m9.85-12.16q1.31 0 2.38.42 1.08.43 1.84 1.21.77.78 1.18 1.91.42 1.13.42 2.52 0 1.4-.42 2.53-.41 1.12-1.18 1.92-.76.79-1.84 1.22-1.07.42-2.38.42-1.32 0-2.4-.42-1.09-.43-1.85-1.22-.77-.8-1.19-1.92-.42-1.13-.42-2.53 0-1.39.42-2.52t1.19-1.91q.76-.78 1.85-1.21 1.08-.42 2.4-.42m0 9.97q1.47 0 2.18-.99t.71-2.9-.71-2.91-2.18-1q-1.5 0-2.22 1.01-.71 1-.71 2.9t.71 2.89q.72 1 2.22 1"/></svg>